<?xml version="1.0" standalone="no"?>
<!DOCTYPE svg PUBLIC "-//W3C//DTD SVG 20010904//EN"
 "http://www.w3.org/TR/2001/REC-SVG-20010904/DTD/svg10.dtd">
<svg version="1.0" xmlns="http://www.w3.org/2000/svg"
 width="1125.000000pt" height="598.000000pt" viewBox="0 0 1125.000000 598.000000"
 preserveAspectRatio="xMidYMid meet">
<metadata>
Created by potrace 1.16, written by Peter Selinger 2001-2019
</metadata>
<g transform="translate(0.000000,598.000000) scale(0.100000,-0.100000)"
fill="#000000" stroke="none">
<path d="M4940 3450 l0 -730 700 0 700 0 0 730 0 730 -700 0 -700 0 0 -730z
m1265 365 l0 -230 -80 0 -80 0 -3 153 -3 152 -399 0 -400 0 0 -435 0 -435 400
0 400 0 2 213 3 212 80 0 80 0 0 -290 0 -290 -565 0 -565 0 -3 580 c-1 319 0
586 3 593 3 10 122 12 567 10 l563 -3 0 -230z m-295 -151 l0 -86 -147 6 c-82
4 -167 9 -190 13 l-43 5 0 -146 0 -146 110 0 110 0 0 65 0 65 80 0 80 0 0
-145 0 -145 -267 2 -268 3 -3 285 c-1 157 0 290 3 297 3 10 65 13 270 13 l265
0 0 -86z"/>
<path d="M3995 2506 c-138 -60 -139 -304 -1 -367 58 -26 115 -24 160 6 34 23
36 23 36 5 0 -16 7 -20 30 -20 l30 0 0 105 0 105 -80 0 -80 0 0 -30 c0 -28 2
-30 40 -30 43 0 46 -5 29 -43 -20 -44 -77 -59 -128 -32 -44 22 -64 88 -49 160
18 85 101 114 160 55 21 -22 39 -30 64 -30 21 0 34 5 34 13 0 23 -40 77 -72
97 -39 23 -126 26 -173 6z"/>
<path d="M4380 2320 l0 -190 40 0 40 0 0 75 0 75 58 0 c73 0 89 -15 98 -93 l7
-57 41 0 42 0 -10 70 c-8 48 -18 76 -33 91 l-22 22 24 19 c30 23 41 78 25 118
-22 52 -46 60 -185 60 l-125 0 0 -190z m218 118 c7 -7 12 -26 12 -43 0 -45
-16 -55 -87 -55 l-63 0 0 55 0 55 63 0 c36 0 68 -5 75 -12z"/>
<path d="M4867 2338 c-36 -95 -68 -181 -72 -190 -6 -16 -1 -18 37 -18 42 0 44
1 58 43 l15 42 72 3 71 3 14 -43 c14 -41 17 -43 56 -46 23 -2 42 0 42 5 0 4
-30 90 -67 190 l-68 183 -46 0 -46 0 -66 -172z m137 8 c9 -27 16 -53 16 -58 0
-4 -21 -8 -46 -8 -33 0 -45 4 -42 13 3 6 13 36 23 65 9 30 21 50 25 45 4 -4
15 -30 24 -57z"/>
<path d="M5260 2320 l0 -190 40 0 39 0 3 127 3 126 78 -126 79 -127 44 0 44 0
0 190 0 190 -40 0 -39 0 -3 -127 -3 -128 -78 128 -78 127 -45 0 -44 0 0 -190z"/>
<path d="M5720 2319 l0 -191 119 4 c102 2 124 6 148 24 101 73 96 280 -7 335
-28 15 -57 19 -147 19 l-113 0 0 -191z m225 97 c28 -28 40 -81 30 -132 -11
-59 -44 -84 -110 -84 l-55 0 0 120 0 120 55 0 c46 0 60 -4 80 -24z"/>
<path d="M6180 2320 l0 -190 150 0 150 0 0 35 0 35 -105 0 -105 0 0 50 0 50
95 0 95 0 0 30 0 30 -95 0 -95 0 0 40 0 40 100 0 100 0 0 35 0 35 -145 0 -145
0 0 -190z"/>
<path d="M6592 2367 c3 -120 7 -149 24 -178 38 -65 147 -89 227 -50 68 33 77
61 77 230 l0 141 -40 0 -40 0 0 -134 c0 -120 -2 -136 -21 -160 -26 -33 -88
-37 -119 -6 -18 18 -20 33 -20 160 l0 140 -46 0 -47 0 5 -143z"/>
<path d="M7060 2320 l0 -190 40 0 40 0 0 75 0 75 58 0 c73 0 88 -14 97 -92 l7
-58 42 0 42 0 -12 71 c-8 46 -19 79 -32 92 l-21 20 24 19 c30 23 40 68 25 113
-18 54 -49 65 -190 65 l-120 0 0 -190z m218 118 c7 -7 12 -26 12 -43 0 -45
-16 -55 -87 -55 l-63 0 0 55 0 55 63 0 c36 0 68 -5 75 -12z"/>
<path d="M4240 1840 l0 -80 60 0 c33 0 60 4 60 10 0 6 -23 10 -51 10 -47 0
-50 2 -47 23 2 17 11 23 36 25 44 4 41 22 -4 22 -31 0 -35 3 -32 23 2 18 10
23 46 25 61 5 52 22 -13 22 l-55 0 0 -80z"/>
<path d="M4400 1840 l0 -80 55 0 c30 0 55 5 55 10 0 6 -20 10 -45 10 l-45 0 0
70 c0 40 -4 70 -10 70 -6 0 -10 -33 -10 -80z"/>
<path d="M4540 1840 l0 -80 60 0 c33 0 60 4 60 10 0 6 -23 10 -51 10 -47 0
-50 2 -47 23 2 17 11 23 36 25 44 4 41 22 -4 22 -31 0 -35 3 -32 23 2 18 10
23 46 25 61 5 52 22 -13 22 l-55 0 0 -80z"/>
<path d="M4715 1895 c-68 -67 20 -171 106 -125 13 8 19 21 19 45 0 31 -3 35
-25 35 -27 0 -34 -15 -10 -24 20 -7 19 -32 -1 -40 -29 -11 -54 -6 -74 14 -26
26 -25 55 1 81 17 17 29 20 60 15 38 -6 54 6 23 18 -34 13 -75 6 -99 -19z"/>
<path d="M4925 1910 c3 -5 -10 -41 -30 -80 -26 -52 -31 -70 -21 -70 8 0 18 5
21 10 9 14 88 13 103 -2 27 -27 21 4 -15 76 -20 42 -43 76 -51 76 -7 0 -11 -4
-7 -10z m45 -91 c0 -4 -13 -9 -30 -11 -35 -5 -35 -6 -14 34 l16 32 14 -25 c7
-13 13 -27 14 -30z"/>
<path d="M5048 1908 c7 -7 12 -40 12 -80 0 -39 4 -68 10 -68 6 0 10 24 10 53
l1 52 47 -53 c26 -28 53 -52 60 -52 8 0 12 23 12 80 0 64 -3 80 -15 80 -12 0
-15 -13 -15 -57 l0 -58 -53 58 c-28 32 -59 57 -66 57 -12 0 -12 -3 -3 -12z"/>
<path d="M5269 1907 c-30 -23 -41 -56 -30 -89 6 -17 19 -37 28 -44 25 -18 88
-18 103 1 16 19 5 34 -12 17 -17 -17 -49 -15 -76 4 -27 19 -29 64 -4 87 21 19
67 23 77 7 4 -6 11 -8 16 -4 6 4 6 11 -2 20 -14 17 -78 18 -100 1z"/>
<path d="M5420 1840 l0 -80 60 0 c33 0 60 4 60 10 0 6 -23 10 -51 10 -47 0
-50 2 -47 23 2 17 11 23 36 25 44 4 41 22 -4 22 -31 0 -35 3 -32 23 2 18 10
23 46 25 61 5 52 22 -13 22 l-55 0 0 -80z"/>
<path d="M5646 1904 c-33 -32 -14 -63 43 -71 47 -6 58 -17 41 -38 -15 -18 -61
-20 -78 -3 -17 17 -28 2 -12 -17 16 -20 84 -20 104 1 19 19 21 48 4 61 -7 6
-30 13 -51 17 -29 5 -37 11 -35 24 3 13 13 17 46 15 42 -2 56 9 26 21 -29 11
-72 6 -88 -10z"/>
<path d="M5800 1840 c0 -47 4 -80 10 -80 6 0 10 33 10 80 0 47 -4 80 -10 80
-6 0 -10 -33 -10 -80z"/>
<path d="M5864 1904 c3 -9 6 -45 6 -80 0 -36 4 -64 10 -64 6 0 10 23 10 50 0
28 3 50 8 50 4 -1 25 -23 46 -50 56 -71 66 -67 66 30 0 94 -18 108 -22 18 l-3
-62 -50 61 c-47 58 -85 83 -71 47z"/>
<path d="M6072 1897 c-32 -34 -30 -89 4 -116 38 -30 114 -27 114 5 0 16 -16
19 -25 4 -9 -15 -48 -12 -73 6 -14 10 -22 25 -22 44 0 40 37 65 85 56 35 -7
49 6 19 18 -35 13 -81 6 -102 -17z"/>
<path d="M6230 1840 l0 -80 60 0 c71 0 81 18 13 22 -40 3 -48 6 -48 23 0 15 8
21 33 23 44 4 41 22 -4 22 -31 0 -35 3 -32 23 2 18 10 23 46 25 61 5 52 22
-13 22 l-55 0 0 -80z"/>
<path d="M6463 1913 c-26 -10 -12 -22 24 -20 32 2 38 -1 41 -20 2 -14 -4 -26
-20 -34 -33 -17 -68 -50 -68 -66 0 -9 17 -13 60 -13 71 0 81 18 13 22 l-48 3
37 25 c44 30 58 57 47 88 -6 17 -16 22 -41 21 -18 0 -39 -3 -45 -6z"/>
<path d="M6616 1905 c-34 -34 -32 -116 4 -135 29 -15 65 -12 83 8 24 26 23
104 -1 125 -23 21 -66 22 -86 2z m74 -24 c15 -28 12 -77 -5 -91 -25 -20 -63
-4 -70 30 -13 59 49 109 75 61z"/>
<path d="M6770 1906 c-10 -13 -5 -15 32 -13 37 2 43 -1 43 -18 0 -12 -17 -30
-42 -48 -26 -17 -43 -36 -43 -48 0 -16 7 -19 55 -19 30 0 55 5 55 10 0 6 -18
10 -40 10 -22 0 -40 5 -40 10 0 6 4 10 9 10 5 0 23 12 40 26 32 27 40 61 19
82 -17 17 -73 15 -88 -2z"/>
<path d="M6926 1898 c-22 -31 -21 -101 2 -121 21 -19 54 -22 82 -7 21 11 35
67 25 99 -17 53 -81 70 -109 29z m80 -23 c22 -34 11 -83 -22 -91 -33 -8 -54
12 -54 52 0 59 47 84 76 39z"/>
</g>
</svg>
